<svg width="26" height="26" viewBox="0 0 26 26" fill="none" xmlns="http://www.w3.org/2000/svg">
<path d="M24.86 13.1101C24.86 19.7701 19.45 25.1699 12.78 25.1599C6.12001 25.1499 0.730011 19.7401 0.730011 13.0801C0.740011 6.42009 6.15001 1.03005 12.82 1.04005C19.47 1.05005 24.86 6.46012 24.86 13.1101ZM16 19.3999C16.5 19.3999 16.99 19.3101 17.45 19.1001C18.03 18.8401 18.45 18.38 18.89 17.94C19.23 17.6 19.23 17.35 18.89 17.01C18.2 16.32 17.52 15.63 16.83 14.94C16.5 14.61 16.24 14.61 15.9 14.95C15.52 15.33 15.15 15.7101 14.77 16.0901C14.32 16.5401 13.77 16.58 13.26 16.22C11.9 15.25 10.72 14.1 9.73001 12.76C9.31001 12.2 9.35001 11.6699 9.84001 11.1799C10.24 10.7799 10.64 10.38 11.04 9.97999C11.32 9.7 11.32 9.42993 11.05 9.15993C10.33 8.42993 9.61001 7.71 8.89001 6.99C8.62001 6.73 8.35001 6.73 8.08001 6.99C7.82001 7.24 7.56001 7.49002 7.32001 7.76002C6.53001 8.64002 6.24001 9.67007 6.58001 10.8101C6.75001 11.3901 6.98001 11.97 7.27001 12.5C8.73001 15.24 10.86 17.3099 13.65 18.6799C14.38 19.0499 15.16 19.3399 16 19.3999Z" fill="black"/>
<path d="M12.63 25.1699C19.3237 25.1699 24.75 19.7437 24.75 13.05C24.75 6.35636 19.3237 0.929932 12.63 0.929932C5.93632 0.929932 0.51001 6.35636 0.51001 13.05C0.51001 19.7437 5.93632 25.1699 12.63 25.1699Z" stroke="url(#paint0_linear_44_3417)" stroke-width="0.75" stroke-miterlimit="10"/>
<defs>
<linearGradient id="paint0_linear_44_3417" x1="0.14161" y1="13.0495" x2="25.1246" y2="13.0495" gradientUnits="userSpaceOnUse">
<stop offset="0.0194" stop-color="#575756"/>
<stop offset="0.0993" stop-color="#C6C6C6"/>
<stop offset="0.1589" stop-color="#EAEAEA"/>
<stop offset="0.2111" stop-color="#CAC8C7"/>
<stop offset="0.256" stop-color="#C9C4BC"/>
<stop offset="0.302" stop-color="#B2B0AD"/>
<stop offset="0.3466" stop-color="#DDDDDD"/>
<stop offset="0.3819" stop-color="#A09D98"/>
<stop offset="0.4152" stop-color="#FFFAEF"/>
<stop offset="0.4483" stop-color="#C9C4BC"/>
<stop offset="0.4959" stop-color="#C4C4C4"/>
<stop offset="0.5424" stop-color="#F7F4EC"/>
<stop offset="0.5793" stop-color="#A09F9D"/>
<stop offset="0.6074" stop-color="#C6C4BE"/>
<stop offset="0.6421" stop-color="#C2C1C1"/>
<stop offset="0.6942" stop-color="#999796"/>
<stop offset="0.7378" stop-color="#F2F1EB"/>
<stop offset="0.7752" stop-color="#D8D8D7"/>
<stop offset="0.8297" stop-color="#F4F2EF"/>
<stop offset="0.8525" stop-color="#C4C4C4"/>
<stop offset="0.8914" stop-color="#A8A59E"/>
<stop offset="0.9306" stop-color="#E2DFD9"/>
<stop offset="0.9679" stop-color="#C6C6C6"/>
</linearGradient>
</defs>
</svg>
