<svg width="8" height="9" viewBox="0 0 8 9" fill="none" xmlns="http://www.w3.org/2000/svg">
<path d="M0.190002 5.79004C0.190002 4.22004 0.190002 2.64996 0.190002 1.07996C0.200002 1.05996 0.209991 1.03001 0.209991 1.01001C0.319991 0.64001 0.63001 0.400024 1.01001 0.400024C3.02001 0.400024 5.03999 0.400024 7.04999 0.400024C7.48999 0.400024 7.87 0.769961 7.87 1.20996C7.87 2.69996 7.87 4.18004 7.87 5.67004C7.87 5.74004 7.86 5.79999 7.84 5.85999C7.74 6.21999 7.42 6.47998 7.03 6.47998C6.43 6.47998 5.83 6.47998 5.22 6.47998C5.15 6.47998 5.10999 6.50995 5.07999 6.56995C4.88999 6.95995 4.7 7.33997 4.5 7.71997C4.42 7.88997 4.29999 8.01996 4.12 8.07996C4.05 8.07996 3.98 8.07996 3.91 8.07996C3.73 8.01996 3.61 7.88998 3.53 7.72998C3.34 7.33998 3.14001 6.95995 2.95001 6.56995C2.92001 6.49995 2.88 6.47998 2.81 6.47998C2.22 6.47998 1.63999 6.47998 1.04999 6.47998C0.969988 6.47998 0.890007 6.46996 0.820007 6.45996C0.480007 6.36996 0.270002 6.14004 0.190002 5.79004ZM4.03 0.859985C3.04 0.859985 2.06001 0.859985 1.07001 0.859985C0.800007 0.859985 0.640015 1.01004 0.640015 1.29004C0.640015 2.72004 0.640015 4.15997 0.640015 5.58997C0.640015 5.85997 0.819998 6.01001 1.06 6.01001C1.71 6.00001 2.35 6.01001 3 6.01001C3.14 6.01001 3.22999 6.05994 3.29999 6.18994C3.50999 6.62994 3.73001 7.06 3.95001 7.5C3.97001 7.54 3.97999 7.59998 4.01999 7.59998C4.06999 7.59998 4.08001 7.54 4.10001 7.5C4.32001 7.07 4.54 6.63996 4.75 6.20996C4.82 6.06996 4.92001 6.01001 5.07001 6.01001C5.72001 6.01001 6.38 6.01001 7.03 6.01001C7.2 6.01001 7.34001 5.91 7.39001 5.75C7.41001 5.69 7.41 5.63996 7.41 5.57996C7.41 4.14996 7.41 2.72004 7.41 1.29004C7.41 1.27004 7.41 1.26 7.41 1.25C7.4 1.07 7.29999 0.930005 7.14999 0.880005C7.08999 0.860005 7.01999 0.859985 6.95999 0.859985C5.97999 0.859985 5.01 0.859985 4.03 0.859985Z" fill="black"/>
</svg>
