<svg width="27" height="27" viewBox="0 0 27 27" fill="none" xmlns="http://www.w3.org/2000/svg">
<path d="M13.66 1.31006C16.91 1.31006 19.96 2.57012 22.26 4.87012C24.56 7.17012 25.82 10.22 25.82 13.47C25.82 16.72 24.56 19.7701 22.26 22.0701C19.96 24.3701 16.91 25.6299 13.66 25.6299C10.41 25.6299 7.36 24.3701 5.06 22.0701C2.76 19.7701 1.5 16.72 1.5 13.47C1.5 10.22 2.76 7.17012 5.06 4.87012C7.36 2.57012 10.42 1.31006 13.66 1.31006ZM13.66 0.419922C6.45 0.419922 0.609985 6.25997 0.609985 13.47C0.609985 20.68 6.45 26.52 13.66 26.52C20.87 26.52 26.71 20.68 26.71 13.47C26.71 6.25997 20.87 0.419922 13.66 0.419922Z" fill="url(#paint0_linear_3_3252)"/>
<path d="M13.66 2.19995C7.44 2.19995 2.39999 7.23996 2.39999 13.46C2.39999 19.68 7.44 24.72 13.66 24.72C19.88 24.72 24.92 19.68 24.92 13.46C24.93 7.24996 19.88 2.19995 13.66 2.19995ZM17.9 13.47C17.9 14.28 17.77 15.04 17.52 15.73C17.26 16.42 16.9 17.02 16.43 17.51C15.96 18.01 15.39 18.3999 14.72 18.6799C14.06 18.9599 13.32 19.1001 12.51 19.1001H10.89V14.4399L9.42999 15.26V13.53L10.89 12.7V12.23L9.42999 13.05V11.3201L10.89 10.49V7.84009H12.77V9.41992L15.12 8.09009V9.84009L12.77 11.1599V11.6299L15.12 10.3V12.05L12.77 13.3701V17.4199C13.24 17.3899 13.66 17.2901 14.02 17.1201C14.44 16.9201 14.8 16.65 15.09 16.3C15.38 15.95 15.6 15.53 15.75 15.05C15.9 14.56 15.98 14.03 15.98 13.45V13.23H17.91V13.47H17.9Z" fill="url(#paint1_linear_3_3252)"/>
<defs>
<linearGradient id="paint0_linear_3_3252" x1="-291.36" y1="66.6694" x2="219.244" y2="-22.3892" gradientUnits="userSpaceOnUse">
<stop offset="0.0194" stop-color="#575756"/>
<stop offset="0.0993" stop-color="#C6C6C6"/>
<stop offset="0.1589" stop-color="#EAEAEA"/>
<stop offset="0.2111" stop-color="#CAC8C7"/>
<stop offset="0.256" stop-color="#C9C4BC"/>
<stop offset="0.302" stop-color="#B2B0AD"/>
<stop offset="0.3466" stop-color="#DDDDDD"/>
<stop offset="0.3819" stop-color="#A09D98"/>
<stop offset="0.4152" stop-color="#FFFAEF"/>
<stop offset="0.4483" stop-color="#C9C4BC"/>
<stop offset="0.4959" stop-color="#C4C4C4"/>
<stop offset="0.5424" stop-color="#F7F4EC"/>
<stop offset="0.5793" stop-color="#A09F9D"/>
<stop offset="0.6074" stop-color="#C6C4BE"/>
<stop offset="0.6421" stop-color="#C2C1C1"/>
<stop offset="0.6942" stop-color="#999796"/>
<stop offset="0.7378" stop-color="#F2F1EB"/>
<stop offset="0.7752" stop-color="#D8D8D7"/>
<stop offset="0.8297" stop-color="#F4F2EF"/>
<stop offset="0.8525" stop-color="#C4C4C4"/>
<stop offset="0.8914" stop-color="#A8A59E"/>
<stop offset="0.9306" stop-color="#E2DFD9"/>
<stop offset="0.9679" stop-color="#C6C6C6"/>
</linearGradient>
<linearGradient id="paint1_linear_3_3252" x1="-291.36" y1="66.6692" x2="219.244" y2="-22.3897" gradientUnits="userSpaceOnUse">
<stop offset="0.0194" stop-color="#575756"/>
<stop offset="0.0993" stop-color="#C6C6C6"/>
<stop offset="0.1589" stop-color="#EAEAEA"/>
<stop offset="0.2111" stop-color="#CAC8C7"/>
<stop offset="0.256" stop-color="#C9C4BC"/>
<stop offset="0.302" stop-color="#B2B0AD"/>
<stop offset="0.3466" stop-color="#DDDDDD"/>
<stop offset="0.3819" stop-color="#A09D98"/>
<stop offset="0.4152" stop-color="#FFFAEF"/>
<stop offset="0.4483" stop-color="#C9C4BC"/>
<stop offset="0.4959" stop-color="#C4C4C4"/>
<stop offset="0.5424" stop-color="#F7F4EC"/>
<stop offset="0.5793" stop-color="#A09F9D"/>
<stop offset="0.6074" stop-color="#C6C4BE"/>
<stop offset="0.6421" stop-color="#C2C1C1"/>
<stop offset="0.6942" stop-color="#999796"/>
<stop offset="0.7378" stop-color="#F2F1EB"/>
<stop offset="0.7752" stop-color="#D8D8D7"/>
<stop offset="0.8297" stop-color="#F4F2EF"/>
<stop offset="0.8525" stop-color="#C4C4C4"/>
<stop offset="0.8914" stop-color="#A8A59E"/>
<stop offset="0.9306" stop-color="#E2DFD9"/>
<stop offset="0.9679" stop-color="#C6C6C6"/>
</linearGradient>
</defs>
</svg>
