<svg width="27" height="28" viewBox="0 0 27 28" fill="none" xmlns="http://www.w3.org/2000/svg">
<path d="M13.18 1.83008C16.43 1.83008 19.48 3.09989 21.78 5.38989C24.08 7.68989 25.34 10.74 25.34 13.99C25.34 17.24 24.08 20.2901 21.78 22.5901C19.48 24.8901 16.43 26.1499 13.18 26.1499C9.92999 26.1499 6.87999 24.8901 4.57999 22.5901C2.27999 20.2901 1.01999 17.24 1.01999 13.99C1.01999 10.74 2.27999 7.68989 4.57999 5.38989C6.87999 3.09989 9.92999 1.83008 13.18 1.83008ZM13.18 0.939941C5.96999 0.939941 0.130005 6.77999 0.130005 13.99C0.130005 21.2 5.96999 27.04 13.18 27.04C20.39 27.04 26.23 21.2 26.23 13.99C26.23 6.77999 20.39 0.939941 13.18 0.939941Z" fill="url(#paint0_linear_3_3221)"/>
<path d="M10.97 13.5701H13.48C14.23 13.5701 14.8 13.4399 15.18 13.1899H10.96V13.5701H10.97Z" fill="url(#paint1_linear_3_3221)"/>
<path d="M13.45 10.0901H10.96V10.3999H15.15C14.78 10.1999 14.21 10.0901 13.45 10.0901Z" fill="url(#paint2_linear_3_3221)"/>
<path d="M10.97 11.5701V12.03H15.8C15.81 11.95 15.81 11.87 15.81 11.79C15.81 11.71 15.81 11.6401 15.8 11.5701H10.97Z" fill="url(#paint3_linear_3_3221)"/>
<path d="M13.18 2.72998C6.95999 2.72998 1.92001 7.76999 1.92001 13.99C1.92001 20.21 6.95999 25.25 13.18 25.25C19.4 25.25 24.44 20.21 24.44 13.99C24.44 7.76999 19.4 2.72998 13.18 2.72998ZM18.23 11.5701H17.73C17.73 11.6301 17.73 11.68 17.73 11.75C17.73 11.84 17.73 11.93 17.72 12.03H18.22V13.2H17.48C16.94 14.6 15.59 15.3101 13.45 15.3101H10.95V19.6299H9.07001V13.2H8.10001V12.03H9.07001V11.5701H8.10001V10.3999H9.07001V8.36011H13.33C15.61 8.36011 17.01 9.0399 17.51 10.3999H18.21V11.5701H18.23Z" fill="url(#paint4_linear_3_3221)"/>
<defs>
<linearGradient id="paint0_linear_3_3221" x1="-78.4196" y1="29.9709" x2="432.184" y2="-59.0876" gradientUnits="userSpaceOnUse">
<stop offset="0.0194" stop-color="#575756"/>
<stop offset="0.0993" stop-color="#C6C6C6"/>
<stop offset="0.1589" stop-color="#EAEAEA"/>
<stop offset="0.2111" stop-color="#CAC8C7"/>
<stop offset="0.256" stop-color="#C9C4BC"/>
<stop offset="0.302" stop-color="#B2B0AD"/>
<stop offset="0.3466" stop-color="#DDDDDD"/>
<stop offset="0.3819" stop-color="#A09D98"/>
<stop offset="0.4152" stop-color="#FFFAEF"/>
<stop offset="0.4483" stop-color="#C9C4BC"/>
<stop offset="0.4959" stop-color="#C4C4C4"/>
<stop offset="0.5424" stop-color="#F7F4EC"/>
<stop offset="0.5793" stop-color="#A09F9D"/>
<stop offset="0.6074" stop-color="#C6C4BE"/>
<stop offset="0.6421" stop-color="#C2C1C1"/>
<stop offset="0.6942" stop-color="#999796"/>
<stop offset="0.7378" stop-color="#F2F1EB"/>
<stop offset="0.7752" stop-color="#D8D8D7"/>
<stop offset="0.8297" stop-color="#F4F2EF"/>
<stop offset="0.8525" stop-color="#C4C4C4"/>
<stop offset="0.8914" stop-color="#A8A59E"/>
<stop offset="0.9306" stop-color="#E2DFD9"/>
<stop offset="0.9679" stop-color="#C6C6C6"/>
</linearGradient>
<linearGradient id="paint1_linear_3_3221" x1="-78.5446" y1="29.2595" x2="432.069" y2="-59.7714" gradientUnits="userSpaceOnUse">
<stop offset="0.0194" stop-color="#575756"/>
<stop offset="0.0993" stop-color="#C6C6C6"/>
<stop offset="0.1589" stop-color="#EAEAEA"/>
<stop offset="0.2111" stop-color="#CAC8C7"/>
<stop offset="0.256" stop-color="#C9C4BC"/>
<stop offset="0.302" stop-color="#B2B0AD"/>
<stop offset="0.3466" stop-color="#DDDDDD"/>
<stop offset="0.3819" stop-color="#A09D98"/>
<stop offset="0.4152" stop-color="#FFFAEF"/>
<stop offset="0.4483" stop-color="#C9C4BC"/>
<stop offset="0.4959" stop-color="#C4C4C4"/>
<stop offset="0.5424" stop-color="#F7F4EC"/>
<stop offset="0.5793" stop-color="#A09F9D"/>
<stop offset="0.6074" stop-color="#C6C4BE"/>
<stop offset="0.6421" stop-color="#C2C1C1"/>
<stop offset="0.6942" stop-color="#999796"/>
<stop offset="0.7378" stop-color="#F2F1EB"/>
<stop offset="0.7752" stop-color="#D8D8D7"/>
<stop offset="0.8297" stop-color="#F4F2EF"/>
<stop offset="0.8525" stop-color="#C4C4C4"/>
<stop offset="0.8914" stop-color="#A8A59E"/>
<stop offset="0.9306" stop-color="#E2DFD9"/>
<stop offset="0.9679" stop-color="#C6C6C6"/>
</linearGradient>
<linearGradient id="paint2_linear_3_3221" x1="-79.0576" y1="26.3044" x2="431.528" y2="-62.8048" gradientUnits="userSpaceOnUse">
<stop offset="0.0194" stop-color="#575756"/>
<stop offset="0.0993" stop-color="#C6C6C6"/>
<stop offset="0.1589" stop-color="#EAEAEA"/>
<stop offset="0.2111" stop-color="#CAC8C7"/>
<stop offset="0.256" stop-color="#C9C4BC"/>
<stop offset="0.302" stop-color="#B2B0AD"/>
<stop offset="0.3466" stop-color="#DDDDDD"/>
<stop offset="0.3819" stop-color="#A09D98"/>
<stop offset="0.4152" stop-color="#FFFAEF"/>
<stop offset="0.4483" stop-color="#C9C4BC"/>
<stop offset="0.4959" stop-color="#C4C4C4"/>
<stop offset="0.5424" stop-color="#F7F4EC"/>
<stop offset="0.5793" stop-color="#A09F9D"/>
<stop offset="0.6074" stop-color="#C6C4BE"/>
<stop offset="0.6421" stop-color="#C2C1C1"/>
<stop offset="0.6942" stop-color="#999796"/>
<stop offset="0.7378" stop-color="#F2F1EB"/>
<stop offset="0.7752" stop-color="#D8D8D7"/>
<stop offset="0.8297" stop-color="#F4F2EF"/>
<stop offset="0.8525" stop-color="#C4C4C4"/>
<stop offset="0.8914" stop-color="#A8A59E"/>
<stop offset="0.9306" stop-color="#E2DFD9"/>
<stop offset="0.9679" stop-color="#C6C6C6"/>
</linearGradient>
<linearGradient id="paint3_linear_3_3221" x1="-78.7856" y1="27.8708" x2="431.815" y2="-61.1951" gradientUnits="userSpaceOnUse">
<stop offset="0.0194" stop-color="#575756"/>
<stop offset="0.0993" stop-color="#C6C6C6"/>
<stop offset="0.1589" stop-color="#EAEAEA"/>
<stop offset="0.2111" stop-color="#CAC8C7"/>
<stop offset="0.256" stop-color="#C9C4BC"/>
<stop offset="0.302" stop-color="#B2B0AD"/>
<stop offset="0.3466" stop-color="#DDDDDD"/>
<stop offset="0.3819" stop-color="#A09D98"/>
<stop offset="0.4152" stop-color="#FFFAEF"/>
<stop offset="0.4483" stop-color="#C9C4BC"/>
<stop offset="0.4959" stop-color="#C4C4C4"/>
<stop offset="0.5424" stop-color="#F7F4EC"/>
<stop offset="0.5793" stop-color="#A09F9D"/>
<stop offset="0.6074" stop-color="#C6C4BE"/>
<stop offset="0.6421" stop-color="#C2C1C1"/>
<stop offset="0.6942" stop-color="#999796"/>
<stop offset="0.7378" stop-color="#F2F1EB"/>
<stop offset="0.7752" stop-color="#D8D8D7"/>
<stop offset="0.8297" stop-color="#F4F2EF"/>
<stop offset="0.8525" stop-color="#C4C4C4"/>
<stop offset="0.8914" stop-color="#A8A59E"/>
<stop offset="0.9306" stop-color="#E2DFD9"/>
<stop offset="0.9679" stop-color="#C6C6C6"/>
</linearGradient>
<linearGradient id="paint4_linear_3_3221" x1="-78.4195" y1="29.9709" x2="432.184" y2="-59.0877" gradientUnits="userSpaceOnUse">
<stop offset="0.0194" stop-color="#575756"/>
<stop offset="0.0993" stop-color="#C6C6C6"/>
<stop offset="0.1589" stop-color="#EAEAEA"/>
<stop offset="0.2111" stop-color="#CAC8C7"/>
<stop offset="0.256" stop-color="#C9C4BC"/>
<stop offset="0.302" stop-color="#B2B0AD"/>
<stop offset="0.3466" stop-color="#DDDDDD"/>
<stop offset="0.3819" stop-color="#A09D98"/>
<stop offset="0.4152" stop-color="#FFFAEF"/>
<stop offset="0.4483" stop-color="#C9C4BC"/>
<stop offset="0.4959" stop-color="#C4C4C4"/>
<stop offset="0.5424" stop-color="#F7F4EC"/>
<stop offset="0.5793" stop-color="#A09F9D"/>
<stop offset="0.6074" stop-color="#C6C4BE"/>
<stop offset="0.6421" stop-color="#C2C1C1"/>
<stop offset="0.6942" stop-color="#999796"/>
<stop offset="0.7378" stop-color="#F2F1EB"/>
<stop offset="0.7752" stop-color="#D8D8D7"/>
<stop offset="0.8297" stop-color="#F4F2EF"/>
<stop offset="0.8525" stop-color="#C4C4C4"/>
<stop offset="0.8914" stop-color="#A8A59E"/>
<stop offset="0.9306" stop-color="#E2DFD9"/>
<stop offset="0.9679" stop-color="#C6C6C6"/>
</linearGradient>
</defs>
</svg>
