<svg width="27" height="27" viewBox="0 0 27 27" fill="none" xmlns="http://www.w3.org/2000/svg">
<path d="M13.96 1.31006C17.21 1.31006 20.26 2.57012 22.56 4.87012C24.86 7.17012 26.12 10.22 26.12 13.47C26.12 16.72 24.86 19.7701 22.56 22.0701C20.26 24.3701 17.21 25.6299 13.96 25.6299C10.71 25.6299 7.66 24.3601 5.36 22.0701C3.06 19.7701 1.8 16.72 1.8 13.47C1.8 10.22 3.06 7.17012 5.36 4.87012C7.66 2.57012 10.71 1.31006 13.96 1.31006ZM13.96 0.419922C6.75 0.419922 0.910004 6.25997 0.910004 13.47C0.910004 20.68 6.75 26.52 13.96 26.52C21.17 26.52 27.01 20.68 27.01 13.47C27.01 6.25997 21.17 0.419922 13.96 0.419922Z" fill="url(#paint0_linear_3_3269)"/>
<path d="M13.96 2.19995C7.74 2.19995 2.7 7.23996 2.7 13.46C2.7 19.68 7.74 24.72 13.96 24.72C20.18 24.72 25.22 19.68 25.22 13.46C25.22 7.24996 20.18 2.19995 13.96 2.19995ZM14.87 11.76L14.52 12.99H12.48C12.48 13.12 12.47 13.28 12.47 13.48C12.47 13.69 12.47 13.86 12.48 14H14.2L13.85 15.23H12.57C12.79 16.92 13.37 17.74 14.33 17.74C15.36 17.74 15.93 16.9799 16.08 15.3999L16.1 15.2H17.98L17.96 15.4399C17.73 17.9799 16.51 19.27 14.34 19.27C12.27 19.27 11.05 17.91 10.7 15.22H9.92V14H10.6C10.6 13.86 10.59 13.69 10.59 13.48C10.59 13.28 10.59 13.12 10.59 12.99H9.91V11.76H10.69C11.02 9.03001 12.25 7.6499 14.33 7.6499C15.35 7.6499 16.19 7.97011 16.81 8.61011C17.42 9.24011 17.81 10.13 17.95 11.28L17.98 11.53H16.09L16.07 11.3301C16.01 10.6501 15.81 10.11 15.5 9.72998C15.19 9.36998 14.81 9.18994 14.32 9.18994C13.36 9.18994 12.79 10.03 12.56 11.76H14.87Z" fill="url(#paint1_linear_3_3269)"/>
<defs>
<linearGradient id="paint0_linear_3_3269" x1="-84.6399" y1="30.6648" x2="425.964" y2="-58.3936" gradientUnits="userSpaceOnUse">
<stop offset="0.0194" stop-color="#575756"/>
<stop offset="0.0993" stop-color="#C6C6C6"/>
<stop offset="0.1589" stop-color="#EAEAEA"/>
<stop offset="0.2111" stop-color="#CAC8C7"/>
<stop offset="0.256" stop-color="#C9C4BC"/>
<stop offset="0.302" stop-color="#B2B0AD"/>
<stop offset="0.3466" stop-color="#DDDDDD"/>
<stop offset="0.3819" stop-color="#A09D98"/>
<stop offset="0.4152" stop-color="#FFFAEF"/>
<stop offset="0.4483" stop-color="#C9C4BC"/>
<stop offset="0.4959" stop-color="#C4C4C4"/>
<stop offset="0.5424" stop-color="#F7F4EC"/>
<stop offset="0.5793" stop-color="#A09F9D"/>
<stop offset="0.6074" stop-color="#C6C4BE"/>
<stop offset="0.6421" stop-color="#C2C1C1"/>
<stop offset="0.6942" stop-color="#999796"/>
<stop offset="0.7378" stop-color="#F2F1EB"/>
<stop offset="0.7752" stop-color="#D8D8D7"/>
<stop offset="0.8297" stop-color="#F4F2EF"/>
<stop offset="0.8525" stop-color="#C4C4C4"/>
<stop offset="0.8914" stop-color="#A8A59E"/>
<stop offset="0.9306" stop-color="#E2DFD9"/>
<stop offset="0.9679" stop-color="#C6C6C6"/>
</linearGradient>
<linearGradient id="paint1_linear_3_3269" x1="-84.6399" y1="30.6648" x2="425.964" y2="-58.394" gradientUnits="userSpaceOnUse">
<stop offset="0.0194" stop-color="#575756"/>
<stop offset="0.0993" stop-color="#C6C6C6"/>
<stop offset="0.1589" stop-color="#EAEAEA"/>
<stop offset="0.2111" stop-color="#CAC8C7"/>
<stop offset="0.256" stop-color="#C9C4BC"/>
<stop offset="0.302" stop-color="#B2B0AD"/>
<stop offset="0.3466" stop-color="#DDDDDD"/>
<stop offset="0.3819" stop-color="#A09D98"/>
<stop offset="0.4152" stop-color="#FFFAEF"/>
<stop offset="0.4483" stop-color="#C9C4BC"/>
<stop offset="0.4959" stop-color="#C4C4C4"/>
<stop offset="0.5424" stop-color="#F7F4EC"/>
<stop offset="0.5793" stop-color="#A09F9D"/>
<stop offset="0.6074" stop-color="#C6C4BE"/>
<stop offset="0.6421" stop-color="#C2C1C1"/>
<stop offset="0.6942" stop-color="#999796"/>
<stop offset="0.7378" stop-color="#F2F1EB"/>
<stop offset="0.7752" stop-color="#D8D8D7"/>
<stop offset="0.8297" stop-color="#F4F2EF"/>
<stop offset="0.8525" stop-color="#C4C4C4"/>
<stop offset="0.8914" stop-color="#A8A59E"/>
<stop offset="0.9306" stop-color="#E2DFD9"/>
<stop offset="0.9679" stop-color="#C6C6C6"/>
</linearGradient>
</defs>
</svg>
