<svg width="27" height="27" viewBox="0 0 27 27" fill="none" xmlns="http://www.w3.org/2000/svg">
<path d="M13.1 1.01001C16.35 1.01001 19.4 2.27007 21.7 4.57007C24 6.87007 25.26 9.91992 25.26 13.1699C25.26 16.4199 24 19.47 21.7 21.77C19.4 24.07 16.35 25.3301 13.1 25.3301C9.84998 25.3301 6.8 24.07 4.5 21.77C2.2 19.47 0.940002 16.4199 0.940002 13.1699C0.940002 9.91992 2.2 6.87007 4.5 4.57007C6.8 2.28007 9.85998 1.01001 13.1 1.01001ZM13.1 0.120117C5.88998 0.120117 0.0499878 5.95992 0.0499878 13.1699C0.0499878 20.3799 5.88998 26.22 13.1 26.22C20.31 26.22 26.15 20.3799 26.15 13.1699C26.15 5.95992 20.31 0.120117 13.1 0.120117Z" fill="url(#paint0_linear_3_3249)"/>
<path d="M13.1 1.90991C6.87998 1.90991 1.84 6.94992 1.84 13.1699C1.84 19.3899 6.87998 24.4299 13.1 24.4299C19.32 24.4299 24.36 19.3899 24.36 13.1699C24.37 6.94992 19.33 1.90991 13.1 1.90991ZM17.04 18.51L16.91 18.5701C16.4 18.8001 15.84 18.9199 15.25 18.9199C14.86 18.9199 14.3 18.8101 13.55 18.5701C12.86 18.3501 12.33 18.24 11.99 18.24C11.23 18.24 10.39 18.4599 9.47 18.8899L9.14999 19.04V17.22L9.26999 17.1599C10.03 16.7499 10.47 16.1899 10.63 15.4399H9.16V14.0601H10.67C10.65 13.9301 10.62 13.7899 10.59 13.6299H9.17001V12.25H10.21C10.02 11.56 9.92999 11.0201 9.92999 10.6001C9.92999 9.5701 10.27 8.75992 10.94 8.16992C11.6 7.58992 12.46 7.30005 13.5 7.30005C14.48 7.30005 15.29 7.56007 15.92 8.07007C16.56 8.59007 16.92 9.34005 16.99 10.3L17.01 10.54H15.13L15.11 10.3401C15.02 9.32009 14.5 8.84009 13.47 8.84009C12.96 8.84009 12.57 9.00007 12.26 9.32007C11.95 9.65007 11.8 10.03 11.8 10.48C11.8 10.82 11.91 11.41 12.11 12.26H14.52V13.6399H12.46C12.5 13.8399 12.53 13.9701 12.55 14.0701H14.52V15.45H12.43C12.31 15.88 12.08 16.2899 11.73 16.6799C11.85 16.6699 11.97 16.6599 12.09 16.6599C12.53 16.6599 13.1 16.7399 13.79 16.9099C14.45 17.0699 14.92 17.1399 15.19 17.1399C15.71 17.1399 16.23 17.01 16.72 16.76L17.04 16.5901V18.51Z" fill="url(#paint1_linear_3_3249)"/>
<defs>
<linearGradient id="paint0_linear_3_3249" x1="-243.783" y1="57.9795" x2="266.821" y2="-31.08" gradientUnits="userSpaceOnUse">
<stop offset="0.0194" stop-color="#575756"/>
<stop offset="0.0993" stop-color="#C6C6C6"/>
<stop offset="0.1589" stop-color="#EAEAEA"/>
<stop offset="0.2111" stop-color="#CAC8C7"/>
<stop offset="0.256" stop-color="#C9C4BC"/>
<stop offset="0.302" stop-color="#B2B0AD"/>
<stop offset="0.3466" stop-color="#DDDDDD"/>
<stop offset="0.3819" stop-color="#A09D98"/>
<stop offset="0.4152" stop-color="#FFFAEF"/>
<stop offset="0.4483" stop-color="#C9C4BC"/>
<stop offset="0.4959" stop-color="#C4C4C4"/>
<stop offset="0.5424" stop-color="#F7F4EC"/>
<stop offset="0.5793" stop-color="#A09F9D"/>
<stop offset="0.6074" stop-color="#C6C4BE"/>
<stop offset="0.6421" stop-color="#C2C1C1"/>
<stop offset="0.6942" stop-color="#999796"/>
<stop offset="0.7378" stop-color="#F2F1EB"/>
<stop offset="0.7752" stop-color="#D8D8D7"/>
<stop offset="0.8297" stop-color="#F4F2EF"/>
<stop offset="0.8525" stop-color="#C4C4C4"/>
<stop offset="0.8914" stop-color="#A8A59E"/>
<stop offset="0.9306" stop-color="#E2DFD9"/>
<stop offset="0.9679" stop-color="#C6C6C6"/>
</linearGradient>
<linearGradient id="paint1_linear_3_3249" x1="-243.782" y1="57.9797" x2="266.821" y2="-31.079" gradientUnits="userSpaceOnUse">
<stop offset="0.0194" stop-color="#575756"/>
<stop offset="0.0993" stop-color="#C6C6C6"/>
<stop offset="0.1589" stop-color="#EAEAEA"/>
<stop offset="0.2111" stop-color="#CAC8C7"/>
<stop offset="0.256" stop-color="#C9C4BC"/>
<stop offset="0.302" stop-color="#B2B0AD"/>
<stop offset="0.3466" stop-color="#DDDDDD"/>
<stop offset="0.3819" stop-color="#A09D98"/>
<stop offset="0.4152" stop-color="#FFFAEF"/>
<stop offset="0.4483" stop-color="#C9C4BC"/>
<stop offset="0.4959" stop-color="#C4C4C4"/>
<stop offset="0.5424" stop-color="#F7F4EC"/>
<stop offset="0.5793" stop-color="#A09F9D"/>
<stop offset="0.6074" stop-color="#C6C4BE"/>
<stop offset="0.6421" stop-color="#C2C1C1"/>
<stop offset="0.6942" stop-color="#999796"/>
<stop offset="0.7378" stop-color="#F2F1EB"/>
<stop offset="0.7752" stop-color="#D8D8D7"/>
<stop offset="0.8297" stop-color="#F4F2EF"/>
<stop offset="0.8525" stop-color="#C4C4C4"/>
<stop offset="0.8914" stop-color="#A8A59E"/>
<stop offset="0.9306" stop-color="#E2DFD9"/>
<stop offset="0.9679" stop-color="#C6C6C6"/>
</linearGradient>
</defs>
</svg>
