<svg width="27" height="28" viewBox="0 0 27 28" fill="none" xmlns="http://www.w3.org/2000/svg">
<path d="M13.95 1.83008C17.2 1.83008 20.25 3.09989 22.55 5.38989C24.85 7.68989 26.11 10.74 26.11 13.99C26.11 17.24 24.85 20.2901 22.55 22.5901C20.25 24.8901 17.2 26.1499 13.95 26.1499C10.7 26.1499 7.65001 24.8901 5.35001 22.5901C3.05001 20.2901 1.79001 17.24 1.79001 13.99C1.79001 10.74 3.05001 7.68989 5.35001 5.38989C7.64001 3.09989 10.7 1.83008 13.95 1.83008ZM13.95 0.939941C6.74001 0.939941 0.899994 6.77999 0.899994 13.99C0.899994 21.2 6.74001 27.04 13.95 27.04C21.16 27.04 27 21.2 27 13.99C27 6.77999 21.15 0.939941 13.95 0.939941Z" fill="url(#paint0_linear_3_3228)"/>
<path d="M13.95 2.72998C7.73001 2.72998 2.69 7.76999 2.69 13.99C2.69 20.21 7.73001 25.25 13.95 25.25C20.17 25.25 25.21 20.21 25.21 13.99C25.21 7.76999 20.17 2.72998 13.95 2.72998ZM18.45 10.0901H14.87V11.72L16.64 10.1899V12.02L14.87 13.55V14.1799L16.64 12.6499V14.48L14.87 16.01V19.6399H12.99V17.6299L11.29 19.1001V17.29L12.99 15.8101V15.1799L11.29 16.6499V14.8401L12.99 13.3601V10.1101H9.44V8.37988H18.45V10.0901Z" fill="url(#paint1_linear_3_3228)"/>
<defs>
<linearGradient id="paint0_linear_3_3228" x1="-36.6666" y1="22.822" x2="473.937" y2="-66.2365" gradientUnits="userSpaceOnUse">
<stop offset="0.0194" stop-color="#575756"/>
<stop offset="0.0993" stop-color="#C6C6C6"/>
<stop offset="0.1589" stop-color="#EAEAEA"/>
<stop offset="0.2111" stop-color="#CAC8C7"/>
<stop offset="0.256" stop-color="#C9C4BC"/>
<stop offset="0.302" stop-color="#B2B0AD"/>
<stop offset="0.3466" stop-color="#DDDDDD"/>
<stop offset="0.3819" stop-color="#A09D98"/>
<stop offset="0.4152" stop-color="#FFFAEF"/>
<stop offset="0.4483" stop-color="#C9C4BC"/>
<stop offset="0.4959" stop-color="#C4C4C4"/>
<stop offset="0.5424" stop-color="#F7F4EC"/>
<stop offset="0.5793" stop-color="#A09F9D"/>
<stop offset="0.6074" stop-color="#C6C4BE"/>
<stop offset="0.6421" stop-color="#C2C1C1"/>
<stop offset="0.6942" stop-color="#999796"/>
<stop offset="0.7378" stop-color="#F2F1EB"/>
<stop offset="0.7752" stop-color="#D8D8D7"/>
<stop offset="0.8297" stop-color="#F4F2EF"/>
<stop offset="0.8525" stop-color="#C4C4C4"/>
<stop offset="0.8914" stop-color="#A8A59E"/>
<stop offset="0.9306" stop-color="#E2DFD9"/>
<stop offset="0.9679" stop-color="#C6C6C6"/>
</linearGradient>
<linearGradient id="paint1_linear_3_3228" x1="-36.6666" y1="22.822" x2="473.937" y2="-66.2366" gradientUnits="userSpaceOnUse">
<stop offset="0.0194" stop-color="#575756"/>
<stop offset="0.0993" stop-color="#C6C6C6"/>
<stop offset="0.1589" stop-color="#EAEAEA"/>
<stop offset="0.2111" stop-color="#CAC8C7"/>
<stop offset="0.256" stop-color="#C9C4BC"/>
<stop offset="0.302" stop-color="#B2B0AD"/>
<stop offset="0.3466" stop-color="#DDDDDD"/>
<stop offset="0.3819" stop-color="#A09D98"/>
<stop offset="0.4152" stop-color="#FFFAEF"/>
<stop offset="0.4483" stop-color="#C9C4BC"/>
<stop offset="0.4959" stop-color="#C4C4C4"/>
<stop offset="0.5424" stop-color="#F7F4EC"/>
<stop offset="0.5793" stop-color="#A09F9D"/>
<stop offset="0.6074" stop-color="#C6C4BE"/>
<stop offset="0.6421" stop-color="#C2C1C1"/>
<stop offset="0.6942" stop-color="#999796"/>
<stop offset="0.7378" stop-color="#F2F1EB"/>
<stop offset="0.7752" stop-color="#D8D8D7"/>
<stop offset="0.8297" stop-color="#F4F2EF"/>
<stop offset="0.8525" stop-color="#C4C4C4"/>
<stop offset="0.8914" stop-color="#A8A59E"/>
<stop offset="0.9306" stop-color="#E2DFD9"/>
<stop offset="0.9679" stop-color="#C6C6C6"/>
</linearGradient>
</defs>
</svg>
