<svg width="27" height="27" viewBox="0 0 27 27" fill="none" xmlns="http://www.w3.org/2000/svg">
<path d="M13.43 1.31006C16.68 1.31006 19.73 2.57012 22.03 4.87012C24.33 7.17012 25.59 10.22 25.59 13.47C25.59 16.72 24.33 19.7701 22.03 22.0701C19.73 24.3701 16.68 25.6299 13.43 25.6299C10.18 25.6299 7.12999 24.3701 4.82999 22.0701C2.52999 19.7701 1.27 16.72 1.27 13.47C1.27 10.22 2.52999 7.17012 4.82999 4.87012C7.12999 2.57012 10.18 1.31006 13.43 1.31006ZM13.43 0.419922C6.21999 0.419922 0.379997 6.25997 0.379997 13.47C0.379997 20.68 6.21999 26.52 13.43 26.52C20.64 26.52 26.48 20.68 26.48 13.47C26.48 6.25997 20.64 0.419922 13.43 0.419922Z" fill="url(#paint0_linear_3_3255)"/>
<path d="M13.43 2.19995C7.20999 2.19995 2.16999 7.23996 2.16999 13.46C2.16999 19.68 7.20999 24.72 13.43 24.72C19.65 24.72 24.69 19.68 24.69 13.46C24.69 7.24996 19.65 2.19995 13.43 2.19995ZM17.62 12.95H15.79C15.41 13.17 14.95 13.3999 14.41 13.6299H17.62V14.8601H11.76C11.73 14.8801 11.71 14.8999 11.69 14.9199L11.68 14.9299C11.39 15.1899 11.25 15.5601 11.25 16.0801C11.25 16.4801 11.42 16.8201 11.76 17.1101C12.11 17.4001 12.61 17.55 13.26 17.55C14.05 17.55 14.67 17.3901 15.08 17.0901C15.49 16.7901 15.71 16.3999 15.77 15.8999L15.79 15.7H17.6L17.59 15.9299C17.55 16.8099 17.15 17.6 16.4 18.28C15.66 18.95 14.58 19.29 13.2 19.29C12.06 19.29 11.13 18.9701 10.45 18.3501C9.76 17.7201 9.42001 16.92 9.42001 15.98C9.42001 15.57 9.48 15.2001 9.6 14.8701H9.24999V13.6399H10.66C10.99 13.4199 11.41 13.19 11.92 12.96H9.24999V11.73H14.71C14.8 11.67 14.88 11.6201 14.93 11.5701C15.23 11.3201 15.38 11.0001 15.38 10.5901C15.38 10.3101 15.24 10.04 14.95 9.78003C14.65 9.52003 14.18 9.38989 13.54 9.38989C12.31 9.38989 11.64 9.85004 11.52 10.79L11.49 10.98H9.67001L9.67999 10.75C9.72999 9.91 10.09 9.17007 10.76 8.57007C11.42 7.97007 12.38 7.65991 13.6 7.65991C14.66 7.65991 15.54 7.96006 16.21 8.56006C16.88 9.16006 17.22 9.86991 17.22 10.6599C17.22 11.0599 17.15 11.42 17.02 11.73H17.63V12.95H17.62Z" fill="url(#paint1_linear_3_3255)"/>
<defs>
<linearGradient id="paint0_linear_3_3255" x1="-250.607" y1="59.5205" x2="259.997" y2="-29.5382" gradientUnits="userSpaceOnUse">
<stop offset="0.0194" stop-color="#575756"/>
<stop offset="0.0993" stop-color="#C6C6C6"/>
<stop offset="0.1589" stop-color="#EAEAEA"/>
<stop offset="0.2111" stop-color="#CAC8C7"/>
<stop offset="0.256" stop-color="#C9C4BC"/>
<stop offset="0.302" stop-color="#B2B0AD"/>
<stop offset="0.3466" stop-color="#DDDDDD"/>
<stop offset="0.3819" stop-color="#A09D98"/>
<stop offset="0.4152" stop-color="#FFFAEF"/>
<stop offset="0.4483" stop-color="#C9C4BC"/>
<stop offset="0.4959" stop-color="#C4C4C4"/>
<stop offset="0.5424" stop-color="#F7F4EC"/>
<stop offset="0.5793" stop-color="#A09F9D"/>
<stop offset="0.6074" stop-color="#C6C4BE"/>
<stop offset="0.6421" stop-color="#C2C1C1"/>
<stop offset="0.6942" stop-color="#999796"/>
<stop offset="0.7378" stop-color="#F2F1EB"/>
<stop offset="0.7752" stop-color="#D8D8D7"/>
<stop offset="0.8297" stop-color="#F4F2EF"/>
<stop offset="0.8525" stop-color="#C4C4C4"/>
<stop offset="0.8914" stop-color="#A8A59E"/>
<stop offset="0.9306" stop-color="#E2DFD9"/>
<stop offset="0.9679" stop-color="#C6C6C6"/>
</linearGradient>
<linearGradient id="paint1_linear_3_3255" x1="-250.607" y1="59.5203" x2="259.997" y2="-29.5386" gradientUnits="userSpaceOnUse">
<stop offset="0.0194" stop-color="#575756"/>
<stop offset="0.0993" stop-color="#C6C6C6"/>
<stop offset="0.1589" stop-color="#EAEAEA"/>
<stop offset="0.2111" stop-color="#CAC8C7"/>
<stop offset="0.256" stop-color="#C9C4BC"/>
<stop offset="0.302" stop-color="#B2B0AD"/>
<stop offset="0.3466" stop-color="#DDDDDD"/>
<stop offset="0.3819" stop-color="#A09D98"/>
<stop offset="0.4152" stop-color="#FFFAEF"/>
<stop offset="0.4483" stop-color="#C9C4BC"/>
<stop offset="0.4959" stop-color="#C4C4C4"/>
<stop offset="0.5424" stop-color="#F7F4EC"/>
<stop offset="0.5793" stop-color="#A09F9D"/>
<stop offset="0.6074" stop-color="#C6C4BE"/>
<stop offset="0.6421" stop-color="#C2C1C1"/>
<stop offset="0.6942" stop-color="#999796"/>
<stop offset="0.7378" stop-color="#F2F1EB"/>
<stop offset="0.7752" stop-color="#D8D8D7"/>
<stop offset="0.8297" stop-color="#F4F2EF"/>
<stop offset="0.8525" stop-color="#C4C4C4"/>
<stop offset="0.8914" stop-color="#A8A59E"/>
<stop offset="0.9306" stop-color="#E2DFD9"/>
<stop offset="0.9679" stop-color="#C6C6C6"/>
</linearGradient>
</defs>
</svg>
