<svg width="27" height="27" viewBox="0 0 27 27" fill="none" xmlns="http://www.w3.org/2000/svg">
<path d="M13.66 1.31006C16.91 1.31006 19.96 2.57012 22.26 4.87012C24.56 7.17012 25.82 10.22 25.82 13.47C25.82 16.72 24.56 19.7701 22.26 22.0701C19.96 24.3701 16.91 25.6299 13.66 25.6299C10.41 25.6299 7.35999 24.3601 5.05999 22.0701C2.75999 19.7701 1.49999 16.72 1.49999 13.47C1.49999 10.22 2.75999 7.17012 5.05999 4.87012C7.35999 2.57012 10.42 1.31006 13.66 1.31006ZM13.66 0.419922C6.45 0.419922 0.609993 6.25997 0.609993 13.47C0.609993 20.68 6.45 26.52 13.66 26.52C20.87 26.52 26.71 20.68 26.71 13.47C26.71 6.25997 20.87 0.419922 13.66 0.419922Z" fill="url(#paint0_linear_3_3258)"/>
<path d="M13.66 2.19995C7.44 2.19995 2.39999 7.23996 2.39999 13.46C2.39999 19.68 7.44 24.72 13.66 24.72C19.88 24.72 24.92 19.68 24.92 13.46C24.93 7.24996 19.88 2.19995 13.66 2.19995ZM17.59 12.77V14.25H14.56V15.1299H17.59V16.6001H14.56V19.0901H12.78V16.6001H9.71999V15.1299H12.78V14.25H9.71999V12.77H11.91L9.07999 7.83008H11.17L13.65 12.3799L16.15 7.83008H18.24L15.41 12.77H17.59Z" fill="url(#paint1_linear_3_3258)"/>
<defs>
<linearGradient id="paint0_linear_3_3258" x1="-207.899" y1="52.1122" x2="302.705" y2="-36.9464" gradientUnits="userSpaceOnUse">
<stop offset="0.0194" stop-color="#575756"/>
<stop offset="0.0993" stop-color="#C6C6C6"/>
<stop offset="0.1589" stop-color="#EAEAEA"/>
<stop offset="0.2111" stop-color="#CAC8C7"/>
<stop offset="0.256" stop-color="#C9C4BC"/>
<stop offset="0.302" stop-color="#B2B0AD"/>
<stop offset="0.3466" stop-color="#DDDDDD"/>
<stop offset="0.3819" stop-color="#A09D98"/>
<stop offset="0.4152" stop-color="#FFFAEF"/>
<stop offset="0.4483" stop-color="#C9C4BC"/>
<stop offset="0.4959" stop-color="#C4C4C4"/>
<stop offset="0.5424" stop-color="#F7F4EC"/>
<stop offset="0.5793" stop-color="#A09F9D"/>
<stop offset="0.6074" stop-color="#C6C4BE"/>
<stop offset="0.6421" stop-color="#C2C1C1"/>
<stop offset="0.6942" stop-color="#999796"/>
<stop offset="0.7378" stop-color="#F2F1EB"/>
<stop offset="0.7752" stop-color="#D8D8D7"/>
<stop offset="0.8297" stop-color="#F4F2EF"/>
<stop offset="0.8525" stop-color="#C4C4C4"/>
<stop offset="0.8914" stop-color="#A8A59E"/>
<stop offset="0.9306" stop-color="#E2DFD9"/>
<stop offset="0.9679" stop-color="#C6C6C6"/>
</linearGradient>
<linearGradient id="paint1_linear_3_3258" x1="-207.899" y1="52.1121" x2="302.705" y2="-36.9468" gradientUnits="userSpaceOnUse">
<stop offset="0.0194" stop-color="#575756"/>
<stop offset="0.0993" stop-color="#C6C6C6"/>
<stop offset="0.1589" stop-color="#EAEAEA"/>
<stop offset="0.2111" stop-color="#CAC8C7"/>
<stop offset="0.256" stop-color="#C9C4BC"/>
<stop offset="0.302" stop-color="#B2B0AD"/>
<stop offset="0.3466" stop-color="#DDDDDD"/>
<stop offset="0.3819" stop-color="#A09D98"/>
<stop offset="0.4152" stop-color="#FFFAEF"/>
<stop offset="0.4483" stop-color="#C9C4BC"/>
<stop offset="0.4959" stop-color="#C4C4C4"/>
<stop offset="0.5424" stop-color="#F7F4EC"/>
<stop offset="0.5793" stop-color="#A09F9D"/>
<stop offset="0.6074" stop-color="#C6C4BE"/>
<stop offset="0.6421" stop-color="#C2C1C1"/>
<stop offset="0.6942" stop-color="#999796"/>
<stop offset="0.7378" stop-color="#F2F1EB"/>
<stop offset="0.7752" stop-color="#D8D8D7"/>
<stop offset="0.8297" stop-color="#F4F2EF"/>
<stop offset="0.8525" stop-color="#C4C4C4"/>
<stop offset="0.8914" stop-color="#A8A59E"/>
<stop offset="0.9306" stop-color="#E2DFD9"/>
<stop offset="0.9679" stop-color="#C6C6C6"/>
</linearGradient>
</defs>
</svg>
