<svg width="27" height="28" viewBox="0 0 27 28" fill="none" xmlns="http://www.w3.org/2000/svg">
<path d="M13.41 1.83008C16.66 1.83008 19.71 3.09989 22.01 5.38989C24.31 7.68989 25.57 10.74 25.57 13.99C25.57 17.24 24.31 20.2901 22.01 22.5901C19.71 24.8901 16.66 26.1499 13.41 26.1499C10.16 26.1499 7.11 24.8901 4.81 22.5901C2.51 20.2901 1.25 17.24 1.25 13.99C1.25 10.74 2.51 7.68989 4.81 5.38989C7.11 3.09989 10.17 1.83008 13.41 1.83008ZM13.41 0.939941C6.2 0.939941 0.359985 6.77999 0.359985 13.99C0.359985 21.2 6.2 27.04 13.41 27.04C20.62 27.04 26.46 21.2 26.46 13.99C26.46 6.77999 20.62 0.939941 13.41 0.939941Z" fill="url(#paint0_linear_3_3278)"/>
<path d="M13.41 2.72998C7.19 2.72998 2.14999 7.76999 2.14999 13.99C2.14999 20.21 7.19 25.25 13.41 25.25C19.63 25.25 24.67 20.21 24.67 13.99C24.68 7.76999 19.64 2.72998 13.41 2.72998ZM17.09 10H15.3C15.45 10.28 15.55 10.5701 15.61 10.8601H17.08V12.49H15.58C15.47 12.92 15.27 13.2901 14.99 13.6201C14.66 14.0001 14.28 14.29 13.85 14.49C14.45 14.85 14.92 15.4799 15.26 16.3899L16.46 19.6299H14.44L13.42 16.71C13.19 16.06 12.88 15.6199 12.49 15.3799C12.09 15.1399 11.63 15.01 11.13 15.01H9.73001V13.28H11.45C12.29 13.28 12.9 13.1499 13.25 12.8999C13.4 12.7999 13.51 12.67 13.59 12.5H9.72V10.8701H13.61C13.35 10.3101 12.75 10.03 11.77 10.01H9.72V8.37988H17.07V10H17.09Z" fill="url(#paint1_linear_3_3278)"/>
<defs>
<linearGradient id="paint0_linear_3_3278" x1="-119.173" y1="37.1202" x2="391.431" y2="-51.9384" gradientUnits="userSpaceOnUse">
<stop offset="0.0194" stop-color="#575756"/>
<stop offset="0.0993" stop-color="#C6C6C6"/>
<stop offset="0.1589" stop-color="#EAEAEA"/>
<stop offset="0.2111" stop-color="#CAC8C7"/>
<stop offset="0.256" stop-color="#C9C4BC"/>
<stop offset="0.302" stop-color="#B2B0AD"/>
<stop offset="0.3466" stop-color="#DDDDDD"/>
<stop offset="0.3819" stop-color="#A09D98"/>
<stop offset="0.4152" stop-color="#FFFAEF"/>
<stop offset="0.4483" stop-color="#C9C4BC"/>
<stop offset="0.4959" stop-color="#C4C4C4"/>
<stop offset="0.5424" stop-color="#F7F4EC"/>
<stop offset="0.5793" stop-color="#A09F9D"/>
<stop offset="0.6074" stop-color="#C6C4BE"/>
<stop offset="0.6421" stop-color="#C2C1C1"/>
<stop offset="0.6942" stop-color="#999796"/>
<stop offset="0.7378" stop-color="#F2F1EB"/>
<stop offset="0.7752" stop-color="#D8D8D7"/>
<stop offset="0.8297" stop-color="#F4F2EF"/>
<stop offset="0.8525" stop-color="#C4C4C4"/>
<stop offset="0.8914" stop-color="#A8A59E"/>
<stop offset="0.9306" stop-color="#E2DFD9"/>
<stop offset="0.9679" stop-color="#C6C6C6"/>
</linearGradient>
<linearGradient id="paint1_linear_3_3278" x1="-119.173" y1="37.1201" x2="391.431" y2="-51.9388" gradientUnits="userSpaceOnUse">
<stop offset="0.0194" stop-color="#575756"/>
<stop offset="0.0993" stop-color="#C6C6C6"/>
<stop offset="0.1589" stop-color="#EAEAEA"/>
<stop offset="0.2111" stop-color="#CAC8C7"/>
<stop offset="0.256" stop-color="#C9C4BC"/>
<stop offset="0.302" stop-color="#B2B0AD"/>
<stop offset="0.3466" stop-color="#DDDDDD"/>
<stop offset="0.3819" stop-color="#A09D98"/>
<stop offset="0.4152" stop-color="#FFFAEF"/>
<stop offset="0.4483" stop-color="#C9C4BC"/>
<stop offset="0.4959" stop-color="#C4C4C4"/>
<stop offset="0.5424" stop-color="#F7F4EC"/>
<stop offset="0.5793" stop-color="#A09F9D"/>
<stop offset="0.6074" stop-color="#C6C4BE"/>
<stop offset="0.6421" stop-color="#C2C1C1"/>
<stop offset="0.6942" stop-color="#999796"/>
<stop offset="0.7378" stop-color="#F2F1EB"/>
<stop offset="0.7752" stop-color="#D8D8D7"/>
<stop offset="0.8297" stop-color="#F4F2EF"/>
<stop offset="0.8525" stop-color="#C4C4C4"/>
<stop offset="0.8914" stop-color="#A8A59E"/>
<stop offset="0.9306" stop-color="#E2DFD9"/>
<stop offset="0.9679" stop-color="#C6C6C6"/>
</linearGradient>
</defs>
</svg>
