<svg width="71" height="23" viewBox="0 0 71 23" fill="none" xmlns="http://www.w3.org/2000/svg">
<path d="M10.7496 13.6335V19.8076H6.1589V13.6335H0V9.05803H6.1589V2.88391H10.7496V9.05803H16.9085V13.6335H10.7496Z" fill="url(#paint0_linear_117_9856)"/>
<path d="M35.1007 4.37162C33.7211 4.37162 32.5255 4.50243 31.5125 4.76406C30.4994 5.02569 29.6582 5.38771 28.989 5.85316C28.3197 6.31862 27.8162 6.86165 27.477 7.48225C27.1378 8.10438 26.9461 8.77518 26.9051 9.49618C27.4481 9.23455 28.02 8.98661 28.6209 8.75236C29.2217 8.51812 29.8666 8.30821 30.5557 8.12568C31.2447 7.94314 31.984 7.79864 32.7734 7.6952C33.5629 7.59025 34.4117 7.53853 35.3197 7.53853C36.7085 7.53853 37.9999 7.67391 39.1909 7.94619C40.3819 8.21846 41.4163 8.64589 42.2939 9.23151C43.1716 9.81713 43.8607 10.564 44.3626 11.4721C44.8646 12.3817 45.1156 13.4677 45.1156 14.7318C45.1156 16.1312 44.8235 17.3328 44.2379 18.3352C43.6523 19.3376 42.8476 20.1606 41.8239 20.804C40.8002 21.4459 39.594 21.9159 38.2037 22.214C36.815 22.5122 35.3106 22.6612 33.6907 22.6612C31.8212 22.6612 30.1176 22.4315 28.5828 21.9722C27.0465 21.5128 25.7262 20.8237 24.6189 19.9035C23.5115 18.9847 22.6551 17.8302 22.0482 16.44C21.4428 15.0512 21.1386 13.4312 21.1386 11.5816C21.1386 9.99358 21.4078 8.49682 21.9463 7.09133C22.4848 5.68584 23.3153 4.45832 24.4379 3.40877C25.5604 2.35921 26.9872 1.5287 28.7152 0.917218C30.4446 0.305739 32.4936 0 34.8665 0C35.5662 0 36.2872 0.0258615 37.0294 0.0790998C37.7717 0.130817 38.4973 0.202306 39.2077 0.290529C39.918 0.378752 40.5888 0.480667 41.2216 0.59627C41.8544 0.711873 42.4095 0.832039 42.8902 0.956768V5.78319C42.5449 5.64782 42.1251 5.4957 41.6292 5.32838C41.1334 5.16106 40.5584 5.00744 39.9058 4.86598C39.2533 4.72451 38.5262 4.60739 37.7276 4.51308C36.926 4.41877 36.0514 4.37162 35.1007 4.37162ZM27.0146 14.245C27.1287 14.6831 27.3675 15.1333 27.728 15.5927C28.0885 16.0521 28.5585 16.4734 29.138 16.8537C29.7176 17.2355 30.3975 17.5488 31.1748 17.7937C31.9536 18.0386 32.8221 18.1618 33.7834 18.1618C34.5455 18.1618 35.265 18.1025 35.9388 17.9823C36.6127 17.8622 37.1983 17.6766 37.6942 17.4256C38.19 17.1746 38.5825 16.8598 38.87 16.478C39.1575 16.0962 39.3004 15.6444 39.3004 15.1227C39.3004 14.5584 39.1848 14.0777 38.9552 13.6807C38.7255 13.2837 38.3908 12.9627 37.9528 12.7163C37.5147 12.4714 36.9732 12.2904 36.3313 12.1763C35.6894 12.0623 34.9547 12.0045 34.1302 12.0045C33.4503 12.0045 32.775 12.0668 32.1011 12.1931C31.4273 12.3193 30.7823 12.4836 30.1663 12.6874C29.5502 12.8913 28.9722 13.1285 28.4353 13.4008C27.8953 13.6701 27.4222 13.9515 27.0146 14.245Z" fill="url(#paint1_linear_117_9856)"/>
<path d="M69.1838 5.10931H54.8612V8.41617C55.1959 8.35381 55.567 8.29904 55.9731 8.25189C56.3808 8.20474 56.8037 8.16519 57.2417 8.13477C57.6798 8.10282 58.124 8.07696 58.5742 8.05719C59.0229 8.03589 59.4671 8.02525 59.9067 8.02525C61.6514 8.02525 63.2105 8.18192 64.584 8.49527C65.9576 8.80861 67.1197 9.26798 68.0704 9.8749C69.0211 10.4803 69.7466 11.2287 70.2486 12.1155C70.7505 13.0038 71 14.0275 71 15.1865C71 16.262 70.7673 17.2583 70.3033 18.1725C69.8379 19.0866 69.1017 19.8761 68.0932 20.5393C67.0847 21.2025 65.7766 21.7227 64.1673 22.0984C62.5579 22.4741 60.6094 22.6627 58.3217 22.6627C57.2661 22.6627 56.2606 22.6232 55.3054 22.5456C54.3501 22.468 53.4557 22.36 52.6252 22.2246C51.7947 22.0893 51.0372 21.9372 50.3527 21.7698C49.6682 21.6025 49.075 21.4306 48.5745 21.2527V16.1753C49.0233 16.3836 49.5541 16.6012 50.1656 16.8248C50.7771 17.0499 51.4874 17.2537 52.2967 17.4362C53.1059 17.6188 54.0201 17.7709 55.0392 17.891C56.0583 18.0112 57.1991 18.0705 58.4632 18.0705C60.8026 18.0705 62.5108 17.8226 63.5877 17.3267C64.6631 16.8308 65.2016 16.1494 65.2016 15.2824C65.2016 14.2587 64.6145 13.5042 63.4387 13.0175C62.2629 12.5322 60.5684 12.2889 58.3536 12.2889C57.6114 12.2889 56.8828 12.3147 56.1678 12.368C55.4514 12.4197 54.773 12.4912 54.1311 12.5794C53.4892 12.6676 52.8899 12.7726 52.3377 12.8927C51.784 13.0129 51.2882 13.1361 50.8486 13.2608H49.4385V0.552124H69.1823V5.10931H69.1838Z" fill="url(#paint2_linear_117_9856)"/>
<defs>
<linearGradient id="paint0_linear_117_9856" x1="-13.997" y1="25.6137" x2="111.213" y2="-53.9634" gradientUnits="userSpaceOnUse">
<stop offset="0.0194" stop-color="#575756"/>
<stop offset="0.0993" stop-color="#C6C6C6"/>
<stop offset="0.1589" stop-color="#EAEAEA"/>
<stop offset="0.2111" stop-color="#CAC8C7"/>
<stop offset="0.256" stop-color="#C9C4BC"/>
<stop offset="0.302" stop-color="#B2B0AD"/>
<stop offset="0.3466" stop-color="#DDDDDD"/>
<stop offset="0.3819" stop-color="#A09D98"/>
<stop offset="0.4152" stop-color="#FFFAEF"/>
<stop offset="0.4483" stop-color="#C9C4BC"/>
<stop offset="0.4959" stop-color="#C4C4C4"/>
<stop offset="0.5424" stop-color="#F7F4EC"/>
<stop offset="0.5793" stop-color="#A09F9D"/>
<stop offset="0.6074" stop-color="#C6C4BE"/>
<stop offset="0.6421" stop-color="#C2C1C1"/>
<stop offset="0.6942" stop-color="#999796"/>
<stop offset="0.7378" stop-color="#F2F1EB"/>
<stop offset="0.7752" stop-color="#D8D8D7"/>
<stop offset="0.8297" stop-color="#F4F2EF"/>
<stop offset="0.8525" stop-color="#C4C4C4"/>
<stop offset="0.8914" stop-color="#A8A59E"/>
<stop offset="0.9306" stop-color="#E2DFD9"/>
<stop offset="0.9679" stop-color="#C6C6C6"/>
</linearGradient>
<linearGradient id="paint1_linear_117_9856" x1="-6.59982" y1="37.2529" x2="118.61" y2="-42.3242" gradientUnits="userSpaceOnUse">
<stop offset="0.0194" stop-color="#575756"/>
<stop offset="0.0993" stop-color="#C6C6C6"/>
<stop offset="0.1589" stop-color="#EAEAEA"/>
<stop offset="0.2111" stop-color="#CAC8C7"/>
<stop offset="0.256" stop-color="#C9C4BC"/>
<stop offset="0.302" stop-color="#B2B0AD"/>
<stop offset="0.3466" stop-color="#DDDDDD"/>
<stop offset="0.3819" stop-color="#A09D98"/>
<stop offset="0.4152" stop-color="#FFFAEF"/>
<stop offset="0.4483" stop-color="#C9C4BC"/>
<stop offset="0.4959" stop-color="#C4C4C4"/>
<stop offset="0.5424" stop-color="#F7F4EC"/>
<stop offset="0.5793" stop-color="#A09F9D"/>
<stop offset="0.6074" stop-color="#C6C4BE"/>
<stop offset="0.6421" stop-color="#C2C1C1"/>
<stop offset="0.6942" stop-color="#999796"/>
<stop offset="0.7378" stop-color="#F2F1EB"/>
<stop offset="0.7752" stop-color="#D8D8D7"/>
<stop offset="0.8297" stop-color="#F4F2EF"/>
<stop offset="0.8525" stop-color="#C4C4C4"/>
<stop offset="0.8914" stop-color="#A8A59E"/>
<stop offset="0.9306" stop-color="#E2DFD9"/>
<stop offset="0.9679" stop-color="#C6C6C6"/>
</linearGradient>
<linearGradient id="paint2_linear_117_9856" x1="0.115276" y1="47.8186" x2="125.325" y2="-31.7585" gradientUnits="userSpaceOnUse">
<stop offset="0.0194" stop-color="#575756"/>
<stop offset="0.0993" stop-color="#C6C6C6"/>
<stop offset="0.1589" stop-color="#EAEAEA"/>
<stop offset="0.2111" stop-color="#CAC8C7"/>
<stop offset="0.256" stop-color="#C9C4BC"/>
<stop offset="0.302" stop-color="#B2B0AD"/>
<stop offset="0.3466" stop-color="#DDDDDD"/>
<stop offset="0.3819" stop-color="#A09D98"/>
<stop offset="0.4152" stop-color="#FFFAEF"/>
<stop offset="0.4483" stop-color="#C9C4BC"/>
<stop offset="0.4959" stop-color="#C4C4C4"/>
<stop offset="0.5424" stop-color="#F7F4EC"/>
<stop offset="0.5793" stop-color="#A09F9D"/>
<stop offset="0.6074" stop-color="#C6C4BE"/>
<stop offset="0.6421" stop-color="#C2C1C1"/>
<stop offset="0.6942" stop-color="#999796"/>
<stop offset="0.7378" stop-color="#F2F1EB"/>
<stop offset="0.7752" stop-color="#D8D8D7"/>
<stop offset="0.8297" stop-color="#F4F2EF"/>
<stop offset="0.8525" stop-color="#C4C4C4"/>
<stop offset="0.8914" stop-color="#A8A59E"/>
<stop offset="0.9306" stop-color="#E2DFD9"/>
<stop offset="0.9679" stop-color="#C6C6C6"/>
</linearGradient>
</defs>
</svg>
