<svg width="9" height="6" viewBox="0 0 9 6" fill="none" xmlns="http://www.w3.org/2000/svg">
<path d="M8.48 3.07003C7.92 3.84003 7.22999 4.47004 6.40999 4.95004C5.95999 5.21004 5.47998 5.4 4.95998 5.47C4.43998 5.54 3.92999 5.48002 3.43999 5.30002C2.90999 5.11002 2.43999 4.83002 1.99999 4.49002C1.50999 4.11002 1.08 3.67003 0.699998 3.19003C0.659998 3.14003 0.619981 3.08004 0.619981 3.01004C0.609981 2.92004 0.649998 2.86001 0.699998 2.79001C0.999998 2.40001 1.33999 2.04 1.71999 1.72C2.15999 1.34 2.62999 1.02006 3.15999 0.780057C3.56999 0.600057 3.99998 0.490008 4.45998 0.480008C5.08998 0.460008 5.66999 0.620001 6.21999 0.910001C7.02999 1.33 7.69998 1.93002 8.27998 2.62002C8.34998 2.71002 8.42998 2.80004 8.48998 2.89004C8.47998 2.95004 8.48 3.01003 8.48 3.07003ZM4.55998 4.95004C4.70998 4.95004 4.86 4.94 5.01 4.91C5.56 4.81 6.03998 4.57004 6.48998 4.26004C6.99998 3.91004 7.43998 3.49005 7.83998 3.02005C7.86998 2.98005 7.87998 2.96001 7.83998 2.92001C7.56998 2.60001 7.27 2.30006 6.95 2.03006C6.53 1.68006 6.06997 1.38002 5.54997 1.18002C5.06997 1.00002 4.56998 0.930005 4.05998 1.04001C3.63998 1.12001 3.26 1.29004 2.89 1.51004C2.26 1.89004 1.74 2.38002 1.26 2.93002C1.23 2.96002 1.23 2.98004 1.26 3.01004C1.78 3.61004 2.34997 4.14005 3.04997 4.52005C3.51997 4.78005 4.01998 4.95004 4.55998 4.95004Z" fill="black"/>
<path d="M6.11998 2.97998C6.09998 3.84998 5.42998 4.53998 4.55998 4.53998C3.66998 4.53998 2.98999 3.83997 2.99999 2.96997C2.99999 2.07997 3.70998 1.40997 4.55998 1.40997C5.43998 1.41997 6.09998 2.10998 6.11998 2.97998ZM5.57997 2.97998C5.57997 2.40998 5.11998 1.96002 4.55998 1.96002C3.98998 1.96002 3.54 2.41998 3.54 2.97998C3.54 3.54998 3.99999 4.01001 4.56999 4.01001C5.11999 4.00001 5.57997 3.53998 5.57997 2.97998Z" fill="black"/>
</svg>
