<svg width="13" height="11" viewBox="0 0 13 11" fill="none" xmlns="http://www.w3.org/2000/svg">
<path d="M0.0100098 3.22001C0.0700098 2.91001 0.13 2.59 0.25 2.3C0.71 1.2 1.50001 0.470023 2.64001 0.140023C3.61001 -0.139977 4.56 -0.0200016 5.44 0.489998C5.73 0.649998 5.99002 0.860014 6.21002 1.10001C6.39002 1.30001 6.35001 1.27999 6.51001 1.10999C7.03001 0.559993 7.66997 0.220015 8.40997 0.0700154C10.37 -0.319985 12.28 0.960021 12.67 2.92002C12.83 3.75002 12.69 4.53001 12.32 5.28001C11.93 6.06001 11.4 6.73 10.79 7.34C9.66998 8.47 8.39999 9.39 7.04999 10.21C6.90999 10.29 6.77 10.37 6.63 10.46C6.45001 10.58 6.27998 10.56 6.09998 10.45C5.31998 9.99002 4.56003 9.49002 3.84003 8.95002C3.08003 8.38002 2.36002 7.76001 1.71002 7.06001C1.13002 6.44001 0.629988 5.76002 0.299988 4.98002C0.169988 4.66002 0.0900195 4.33 0.0200195 3.99C0.0100195 3.73 0.0100098 3.48001 0.0100098 3.22001ZM0.659973 3.63001C0.689973 3.80001 0.679971 3.98001 0.719971 4.16001C0.849971 4.76001 1.13999 5.28 1.48999 5.77C2.01999 6.5 2.66003 7.12002 3.34003 7.70002C4.25003 8.48002 5.24001 9.15 6.26001 9.77C6.32001 9.81 6.38 9.82 6.44 9.77C6.59 9.67 6.75002 9.59 6.90002 9.49C8.00002 8.8 9.05 8.05 10 7.15C10.62 6.56 11.19 5.92001 11.61 5.16001C11.99 4.46001 12.16 3.72 11.98 2.93C11.65 1.52 10.32 0.540022 8.88 0.670022C7.99001 0.750022 7.27 1.13001 6.75 1.85001C6.5 2.20001 6.22002 2.20001 5.96002 1.85001C5.24002 0.870014 4.24 0.5 3.06 0.71C1.7 0.97 0.689973 2.14001 0.659973 3.63001Z" fill="black"/>
</svg>
