<svg width="13" height="14" viewBox="0 0 13 14" fill="none" xmlns="http://www.w3.org/2000/svg">
<path d="M6.62001 13.43C3.22001 13.45 0.320007 10.7 0.320007 7.14001C0.320007 3.65001 3.12001 0.839996 6.61001 0.839996C10.16 0.839996 12.9 3.72 12.91 7.13C12.91 10.59 10.09 13.44 6.62001 13.43ZM7.21001 6.39999C7.21001 6.24999 7.20001 6.11001 7.21001 5.98001C7.22001 5.87001 7.18001 5.82999 7.06001 5.82999C6.70001 5.83999 6.33001 5.83999 5.96001 5.82999C5.84001 5.82999 5.81001 5.87001 5.81001 5.98001C5.81001 7.29001 5.81001 8.6 5.81001 9.91C5.81001 10.03 5.85001 10.07 5.97001 10.07C6.32001 10.06 6.67 10.06 7.02 10.07C7.16 10.07 7.2 10.03 7.2 9.89001C7.19 9.14001 7.20001 8.38 7.19001 7.63C7.19001 7.37 7.29001 7.17 7.47001 7C7.78001 6.71 8.49001 6.70001 8.66001 7.35001C8.70001 7.51001 8.72001 7.66001 8.72001 7.82001C8.72001 8.51001 8.72001 9.20999 8.72001 9.89999C8.72001 10.02 8.75001 10.06 8.87001 10.06C9.23001 10.05 9.58001 10.05 9.94001 10.06C10.07 10.06 10.1 10.02 10.1 9.89001C10.09 9.36001 10.1 8.82001 10.1 8.29001C10.1 7.93001 10.12 7.56001 10.07 7.20001C10.02 6.82001 9.90001 6.47 9.63 6.19C9.3 5.83 8.88001 5.72001 8.40001 5.73001C7.94001 5.74001 7.58001 5.92999 7.30001 6.29999C7.30001 6.33999 7.28001 6.37999 7.21001 6.39999ZM4.99001 7.95001C4.99001 7.29001 4.99001 6.64001 4.99001 5.98001C4.99001 5.87001 4.96001 5.82999 4.85001 5.82999C4.49001 5.83999 4.12001 5.83999 3.76001 5.82999C3.64001 5.82999 3.61001 5.87001 3.61001 5.98001C3.61001 7.29001 3.61001 8.61001 3.61001 9.92001C3.61001 10.04 3.65001 10.07 3.76001 10.07C4.11001 10.07 4.45001 10.07 4.80001 10.07C4.99001 10.07 4.99001 10.07 4.99001 9.88C4.99001 9.24 4.99001 8.60001 4.99001 7.95001ZM4.30001 5.20999C4.72001 5.20999 5.04001 4.95999 5.08001 4.60999C5.12001 4.17999 4.91001 3.88001 4.49001 3.79001C4.08001 3.70001 3.68001 3.91001 3.56001 4.26001C3.40001 4.76001 3.75001 5.20999 4.30001 5.20999Z" fill="black"/>
</svg>
