<svg width="14" height="14" viewBox="0 0 14 14" fill="none" xmlns="http://www.w3.org/2000/svg">
<path d="M13.33 6.89014C13.33 8.38014 13.33 9.86986 13.33 11.3599C13.33 12.3699 12.6 13.1001 11.58 13.1001C8.58999 13.1001 5.59001 13.1001 2.60001 13.1001C1.59001 13.1001 0.859985 12.3701 0.859985 11.3501C0.859985 8.3601 0.859985 5.36012 0.859985 2.37012C0.859985 1.36012 1.58999 0.629883 2.60999 0.629883C5.59999 0.629883 8.6 0.629883 11.59 0.629883C12.6 0.629883 13.33 1.36012 13.33 2.37012C13.33 3.88012 13.33 5.38014 13.33 6.89014ZM5.89001 8.14014C5.89001 8.89014 5.89001 9.6499 5.89001 10.3999C5.89001 10.6299 5.98999 10.73 6.20999 10.73C6.50999 10.73 6.80999 10.73 7.10999 10.73C7.38999 10.73 7.46 10.6499 7.47 10.3599C7.47 9.59986 7.47 8.84008 7.47 8.08008C7.47 7.80008 7.53001 7.53004 7.67001 7.29004C7.86001 6.96004 8.14999 6.8201 8.51999 6.8501C8.86999 6.8801 9.12001 7.08996 9.23001 7.45996C9.28001 7.63996 9.31 7.81977 9.31 8.00977C9.31 8.79977 9.31 9.60014 9.31 10.3901C9.31 10.6001 9.40001 10.7202 9.60001 10.7202C9.96001 10.7302 10.31 10.7302 10.67 10.7202C10.82 10.7202 10.93 10.63 10.93 10.46C10.91 9.34996 11.01 8.24014 10.87 7.14014C10.79 6.45014 10.52 5.82986 9.78 5.60986C9.02 5.38986 8.27 5.38979 7.66 6.02979C7.62 6.06979 7.59001 6.16012 7.51001 6.12012C7.45001 6.09012 7.47 5.99994 7.47 5.93994C7.46 5.59994 7.42 5.56006 7.09 5.56006C6.81 5.56006 6.54001 5.56006 6.26001 5.56006C5.94001 5.56006 5.89001 5.61018 5.89001 5.93018C5.89001 6.67018 5.89001 7.41014 5.89001 8.14014ZM3.51001 8.14014C3.51001 8.88014 3.51001 9.63012 3.51001 10.3701C3.51001 10.6401 3.59001 10.72 3.85001 10.73C4.15001 10.74 4.45 10.73 4.75 10.73C4.96 10.73 5.07999 10.6302 5.07999 10.4102C5.07999 8.90016 5.07999 7.38012 5.07999 5.87012C5.07999 5.67012 4.98 5.56982 4.78 5.56982C4.48 5.56982 4.18 5.56982 3.88 5.56982C3.56 5.56982 3.5 5.62996 3.5 5.95996C3.51 6.67996 3.51001 7.41014 3.51001 8.14014ZM4.29999 5.06006C4.87999 5.06006 5.32999 4.60979 5.32999 4.02979C5.32999 3.47979 4.86 3.01 4.31 3C3.75 2.99 3.27999 3.45979 3.26999 4.02979C3.26999 4.60979 3.70999 5.06006 4.29999 5.06006Z" fill="url(#paint0_linear_3_3393)"/>
<defs>
<linearGradient id="paint0_linear_3_3393" x1="-13.6446" y1="14.025" x2="70.705" y2="-15.1006" gradientUnits="userSpaceOnUse">
<stop offset="0.0194" stop-color="#575756"/>
<stop offset="0.0993" stop-color="#C6C6C6"/>
<stop offset="0.1589" stop-color="#EAEAEA"/>
<stop offset="0.2111" stop-color="#CAC8C7"/>
<stop offset="0.256" stop-color="#C9C4BC"/>
<stop offset="0.302" stop-color="#B2B0AD"/>
<stop offset="0.3466" stop-color="#DDDDDD"/>
<stop offset="0.3819" stop-color="#A09D98"/>
<stop offset="0.4152" stop-color="#FFFAEF"/>
<stop offset="0.4483" stop-color="#C9C4BC"/>
<stop offset="0.4959" stop-color="#C4C4C4"/>
<stop offset="0.5424" stop-color="#F7F4EC"/>
<stop offset="0.5793" stop-color="#A09F9D"/>
<stop offset="0.6074" stop-color="#C6C4BE"/>
<stop offset="0.6421" stop-color="#C2C1C1"/>
<stop offset="0.6942" stop-color="#999796"/>
<stop offset="0.7378" stop-color="#F2F1EB"/>
<stop offset="0.7752" stop-color="#D8D8D7"/>
<stop offset="0.8297" stop-color="#F4F2EF"/>
<stop offset="0.8525" stop-color="#C4C4C4"/>
<stop offset="0.8914" stop-color="#A8A59E"/>
<stop offset="0.9306" stop-color="#E2DFD9"/>
<stop offset="0.9679" stop-color="#C6C6C6"/>
</linearGradient>
</defs>
</svg>
