<svg width="14" height="14" viewBox="0 0 14 14" fill="none" xmlns="http://www.w3.org/2000/svg">
<path d="M7.05001 13.19C3.59001 13.18 0.76001 10.34 0.76001 6.90001C0.76001 3.43001 3.63001 0.589999 7.13001 0.609999C10.58 0.619999 13.41 3.48001 13.4 6.93001C13.38 10.37 10.52 13.2 7.05001 13.19ZM9.55001 4.10002C9.32001 4.05002 9.18001 4.08 9.04001 4.24C8.55001 4.82 8.04001 5.39001 7.56001 5.97001C7.41001 6.15001 7.33001 6.12002 7.21001 5.94002C6.84001 5.39002 6.45001 4.84002 6.08001 4.29002C5.97001 4.12002 5.84001 4.06002 5.64001 4.07002C5.32001 4.08002 5.00001 4.07002 4.69001 4.07002C4.61001 4.07002 4.50001 4.03002 4.45001 4.10002C4.40001 4.18002 4.50001 4.25001 4.54001 4.31001C5.15001 5.20001 5.76001 6.09001 6.37001 6.97001C6.47001 7.11001 6.48001 7.21001 6.36001 7.34001C5.92001 7.84001 5.48001 8.35 5.05001 8.86C4.84001 9.11 4.62001 9.36001 4.40001 9.62001C4.65001 9.70001 4.80001 9.61003 4.94001 9.45003C5.46001 8.84003 5.99001 8.24001 6.50001 7.62001C6.64001 7.45001 6.72001 7.47003 6.83001 7.64003C7.24001 8.25003 7.67001 8.85001 8.08001 9.46C8.17001 9.60001 8.28001 9.66002 8.45001 9.66002C8.80001 9.65002 9.15001 9.66002 9.50001 9.66002C9.56001 9.66002 9.65001 9.69002 9.69001 9.63002C9.74001 9.55002 9.65001 9.50002 9.61001 9.44002C8.97001 8.51002 8.34001 7.58002 7.69001 6.66002C7.57001 6.49002 7.57001 6.38002 7.71001 6.23002C8.01001 5.90002 8.29001 5.56002 8.58001 5.23002C8.91001 4.86002 9.22001 4.49002 9.55001 4.10002Z" fill="black"/>
<path d="M8.75002 9.36999C8.51002 9.40999 8.36002 9.31999 8.23002 9.11999C7.22002 7.63999 6.20002 6.15999 5.18002 4.68999C5.13002 4.61999 5.03002 4.54 5.07002 4.45C5.11002 4.35 5.23002 4.38999 5.32002 4.36999C5.62002 4.32999 5.82002 4.41999 6.01002 4.68999C6.98002 6.11999 7.97002 7.53998 8.95002 8.95998C8.95002 8.96998 8.96002 8.97 8.96002 8.98C9.01002 9.09 9.16002 9.18998 9.10002 9.29998C9.03002 9.42998 8.87002 9.35999 8.75002 9.36999Z" fill="black"/>
</svg>
