<svg width="13" height="14" viewBox="0 0 13 14" fill="none" xmlns="http://www.w3.org/2000/svg">
<path d="M7.16001 13.1C6.81001 13.1 6.45001 13.1 6.10001 13.1C6.08001 13.1 6.06 13.09 6.04 13.09C5.5 13.04 4.99001 12.92 4.48001 12.73C1.71001 11.7 0.0600062 8.89998 0.510006 5.95998C0.750006 4.43998 1.46 3.15998 2.64 2.17998C4.16 0.919978 5.93001 0.44997 7.86 0.85997C10.22 1.35997 11.76 2.81999 12.54 5.09999C12.68 5.51999 12.74 5.94999 12.8 6.37999C12.8 6.72999 12.8 7.08999 12.8 7.43999C12.76 7.67999 12.74 7.91998 12.69 8.14998C12.12 10.56 10.65 12.14 8.28 12.87C7.92 13 7.54001 13.05 7.16001 13.1ZM6.64 9.23C7.29 9.23 7.94 9.22 8.59 9.23C9.33 9.24 9.88 8.64999 9.86 7.96999C9.84 7.26999 9.86 6.56998 9.86 5.86998C9.86 5.77998 9.86 5.68997 9.84 5.60997C9.72 5.00997 9.23 4.61998 8.62 4.61998C7.3 4.61998 5.98 4.62998 4.67 4.61998C3.94 4.60998 3.38001 5.18999 3.40001 5.87999C3.42001 6.57999 3.40001 7.28998 3.40001 7.98997C3.40001 8.07998 3.4 8.16997 3.42 8.26997C3.55 8.85997 4.03 9.23998 4.63 9.24998C5.3 9.22998 5.97 9.23 6.64 9.23Z" fill="black"/>
<path d="M5.76001 6.90999C5.76001 6.61999 5.76001 6.33 5.76001 6.04C5.76001 5.91 5.78001 5.89998 5.89001 5.95998C6.40001 6.24998 6.90002 6.55 7.41002 6.85C7.52002 6.91 7.52002 6.92998 7.41002 6.98998C6.90002 7.28998 6.40001 7.57998 5.89001 7.86998C5.78001 7.92998 5.77002 7.91998 5.77002 7.79998C5.76002 7.50998 5.76001 7.20999 5.76001 6.90999Z" fill="black"/>
</svg>
